<?xml version="1.0" encoding="UTF-8"?>
<svg width="8px" height="4px" viewBox="0 0 8 4" version="1.1" xmlns="http://www.w3.org/2000/svg" xmlns:xlink="http://www.w3.org/1999/xlink">
    <!-- Generator: Sketch 58 (84663) - https://sketch.com -->
    <title>arrow-down</title>
    <desc>Created with Sketch.</desc>
    <g id="登录" stroke="none" stroke-width="1" fill="none" fill-rule="evenodd">
        <g id="登录成功失败" transform="translate(-200.000000, -464.000000)" fill="#444444" fill-rule="nonzero">
            <g id="手机号" transform="translate(160.000000, 421.000000)">
                <g id="编组-3" transform="translate(40.000000, 43.000000)">
                    <g id="arrow-down">
                        <path d="M7.56875895,0.0717630365 L4.01260848,3.52207544 C4.00889495,3.52569987 4.00454488,3.52744005 3.99999927,3.52744005 C3.99545367,3.52744005 3.9911036,3.52569987 3.98794907,3.52261954 L0.431239604,0.0717630365 C0.334701597,-0.0219018087 0.175766418,-0.024175837 0.0762479456,0.0666838521 C-0.0232705269,0.157543541 -0.0256866717,0.307130232 0.0708513353,0.400795077 L3.6270018,3.85110748 C3.72423327,3.94605355 3.85908557,3.99999927 3.99999927,3.99999927 C4.14091298,3.99999927 4.27576528,3.94605355 4.37355574,3.85056338 L7.92914721,0.400795077 C8.02568522,0.307130232 8.02326908,0.157543541 7.9237506,0.0666838521 C7.82423213,-0.024175837 7.66529695,-0.0219018087 7.56875895,0.0717630365 Z" id="Path"></path>
                    </g>
                </g>
            </g>
        </g>
    </g>
</svg>