<?xml version="1.0" encoding="UTF-8"?>
<svg width="16px" height="16px" viewBox="0 0 16 16" version="1.1" xmlns="http://www.w3.org/2000/svg" xmlns:xlink="http://www.w3.org/1999/xlink">
    <!-- Generator: Sketch 58 (84663) - https://sketch.com -->
    <title>2</title>
    <desc>Created with Sketch.</desc>
    <defs>
        <rect id="path-1" x="0" y="0" width="124" height="160" rx="16"></rect>
        <filter x="-23.0%" y="-12.8%" width="146.0%" height="135.6%" filterUnits="objectBoundingBox" id="filter-2">
            <feMorphology radius="0.5" operator="dilate" in="SourceAlpha" result="shadowSpreadOuter1"></feMorphology>
            <feOffset dx="0" dy="8" in="shadowSpreadOuter1" result="shadowOffsetOuter1"></feOffset>
            <feGaussianBlur stdDeviation="8" in="shadowOffsetOuter1" result="shadowBlurOuter1"></feGaussianBlur>
            <feComposite in="shadowBlurOuter1" in2="SourceAlpha" operator="out" result="shadowBlurOuter1"></feComposite>
            <feColorMatrix values="0 0 0 0 0   0 0 0 0 0   0 0 0 0 0  0 0 0 0.1 0" type="matrix" in="shadowBlurOuter1"></feColorMatrix>
        </filter>
    </defs>
    <g id="02注册" stroke="none" stroke-width="1" fill="none" fill-rule="evenodd">
        <g id="注册页面边缘状态" transform="translate(-664.000000, -537.000000)">
            <rect fill="#648CFA" x="0" y="0" width="1440" height="1024"></rect>
            <g id="编组" transform="translate(532.000000, 0.000000)" fill="#1B51E5" fill-rule="nonzero" opacity="0.2">
                <path d="M520.553873,264.510714 C478.075543,251.519233 433.187506,240.667161 387.364503,242.031422 C319.989072,244.031304 255.312515,274.517875 223.639316,319.282673 C196.766254,357.210666 193.450496,401.665405 181.87426,443.755942 C167.628067,495.605593 140.292342,544.897256 111.105961,593.088208 C95.4332215,618.978152 78.8929871,645.426202 76.3194192,673.804371 C72.7530516,713.205145 97.7850963,752.466392 137.044056,778.674147 C176.303015,804.881901 228.439454,818.710542 280.768668,821.725868 C308.615252,823.330424 337.714883,821.84214 362.448124,812.090778 C388.617551,801.773558 407.692798,783.131248 433.968252,772.961306 C458.315939,763.535506 486.798686,762.217754 514.134411,763.442488 C549.82552,765.041147 585.058256,770.677661 618.79284,780.185685 C657.001167,790.975746 692.529899,806.610481 730.603282,817.555571 C768.676666,828.500661 811.318855,834.608828 850.279011,825.477584 C886.90657,816.896695 915.823063,796.060717 941.896102,774.961188 C984.52923,740.522764 1023.60558,703.350514 1058.73801,663.812713 C1082.2664,637.294899 1104.16583,609.319807 1114.56612,578.414656 C1134.46067,519.325122 1107.08639,452.662393 1046.37139,412.308187 C996.066333,378.876053 928.555959,364.365282 862.472132,355.559601 C802.21016,347.529067 732.531049,347.032972 677.059575,326.103976 C624.161669,306.12066 576.025346,281.486456 520.553873,264.510714 Z" id="Path-Copy" transform="translate(598.482293, 535.915338) rotate(-34.000000) translate(-598.482293, -535.915338) "></path>
            </g>
            <path d="M0,0 L768,0 C785.673112,-3.24649801e-15 800,14.326888 800,32 L800,992 C800,1009.67311 785.673112,1024 768,1024 L0,1024 L0,1024 L0,0 Z" id="矩形" fill="#FFFFFF"></path>
            <g id="编组-5" transform="translate(652.000000, 411.000000)">
                <g id="矩形">
                    <use fill="black" fill-opacity="1" filter="url(#filter-2)" xlink:href="#path-1"></use>
                    <use stroke="#D8D8D8" stroke-width="1" fill="#FFFFFF" fill-rule="evenodd" xlink:href="#path-1"></use>
                </g>
                <g id="2" transform="translate(12.000000, 126.000000)" fill="#CCCCCC" fill-rule="nonzero">
                    <path d="M8,0 C12.418278,0 16,3.581722 16,8 C16,12.418278 12.418278,16 8,16 C3.581722,16 2.13162821e-14,12.418278 2.13162821e-14,8 C2.13162821e-14,3.581722 3.581722,0 8,0 Z M8,1.0041841 C4.13631756,1.0041841 1.0041841,4.13631756 1.0041841,8 C1.0041841,11.8636824 4.13631756,14.9958159 8,14.9958159 C11.8636824,14.9958159 14.9958159,11.8636824 14.9958159,8 C14.9958159,4.13631756 11.8636824,1.0041841 8,1.0041841 Z M11.0450369,5.20975341 C11.2313555,5.00437702 11.5488869,4.98892758 11.7542633,5.17524612 C11.9596397,5.36156466 11.9750892,5.67909614 11.7887706,5.88447253 L11.7887706,5.88447253 L7.33822668,10.7902466 C7.13889929,11.0099625 6.79354783,11.009878 6.59432796,10.7900646 L6.59432796,10.7900646 L4.21106436,8.16044116 C4.02484633,7.95497363 4.04045114,7.63744975 4.24591867,7.45123172 C4.4513862,7.2650137 4.76891008,7.2806185 4.95512811,7.48608603 L4.95512811,7.48608603 L6.9665427,9.70542213 Z" id="形状结合"></path>
                </g>
            </g>
        </g>
    </g>
</svg>