<?xml version="1.0" encoding="UTF-8"?>
<svg width="16px" height="16px" viewBox="0 0 16 16" version="1.1" xmlns="http://www.w3.org/2000/svg" xmlns:xlink="http://www.w3.org/1999/xlink">
    <!-- Generator: Sketch 58 (84663) - https://sketch.com -->
    <title>1</title>
    <desc>Created with Sketch.</desc>
    <g id="02注册" stroke="none" stroke-width="1" fill="none" fill-rule="evenodd">
        <g id="注册页面边缘状态" transform="translate(-664.000000, -429.000000)" fill="#5E81F4" fill-rule="nonzero">
            <g id="编组-5" transform="translate(652.000000, 411.000000)">
                <g id="1" transform="translate(12.000000, 18.000000)">
                    <path d="M8,0 C12.418278,0 16,3.581722 16,8 C16,12.418278 12.418278,16 8,16 C3.581722,16 2.13162821e-14,12.418278 2.13162821e-14,8 C2.13162821e-14,3.581722 3.581722,0 8,0 Z M8,1.0041841 C4.13631756,1.0041841 1.0041841,4.13631756 1.0041841,8 C1.0041841,11.8636824 4.13631756,14.9958159 8,14.9958159 C11.8636824,14.9958159 14.9958159,11.8636824 14.9958159,8 C14.9958159,4.13631756 11.8636824,1.0041841 8,1.0041841 Z M11.0450369,5.20975341 C11.2313555,5.00437702 11.5488869,4.98892758 11.7542633,5.17524612 C11.9596397,5.36156466 11.9750892,5.67909614 11.7887706,5.88447253 L11.7887706,5.88447253 L7.33822668,10.7902466 C7.13889929,11.0099625 6.79354783,11.009878 6.59432796,10.7900646 L6.59432796,10.7900646 L4.21106436,8.16044116 C4.02484633,7.95497363 4.04045114,7.63744975 4.24591867,7.45123172 C4.4513862,7.2650137 4.76891008,7.2806185 4.95512811,7.48608603 L4.95512811,7.48608603 L6.9665427,9.70542213 Z" id="形状结合备份-3"></path>
                </g>
            </g>
        </g>
    </g>
</svg>