<?xml version="1.0" encoding="UTF-8"?>
<svg width="20px" height="20px" viewBox="0 0 20 20" version="1.1" xmlns="http://www.w3.org/2000/svg" xmlns:xlink="http://www.w3.org/1999/xlink">
    <!-- Generator: Sketch 58 (84663) - https://sketch.com -->
    <title>invitation</title>
    <desc>Created with Sketch.</desc>
    <g id="02注册" stroke="none" stroke-width="1" fill="none" fill-rule="evenodd">
        <g id="默认注册页面" transform="translate(-604.000000, -689.000000)">
            <rect fill="#648CFA" x="0" y="0" width="1440" height="1024"></rect>
            <g id="编组" transform="translate(532.000000, 0.000000)" fill="#1B51E5" fill-rule="nonzero" opacity="0.2">
                <path d="M520.553873,264.510714 C478.075543,251.519233 433.187506,240.667161 387.364503,242.031422 C319.989072,244.031304 255.312515,274.517875 223.639316,319.282673 C196.766254,357.210666 193.450496,401.665405 181.87426,443.755942 C167.628067,495.605593 140.292342,544.897256 111.105961,593.088208 C95.4332215,618.978152 78.8929871,645.426202 76.3194192,673.804371 C72.7530516,713.205145 97.7850963,752.466392 137.044056,778.674147 C176.303015,804.881901 228.439454,818.710542 280.768668,821.725868 C308.615252,823.330424 337.714883,821.84214 362.448124,812.090778 C388.617551,801.773558 407.692798,783.131248 433.968252,772.961306 C458.315939,763.535506 486.798686,762.217754 514.134411,763.442488 C549.82552,765.041147 585.058256,770.677661 618.79284,780.185685 C657.001167,790.975746 692.529899,806.610481 730.603282,817.555571 C768.676666,828.500661 811.318855,834.608828 850.279011,825.477584 C886.90657,816.896695 915.823063,796.060717 941.896102,774.961188 C984.52923,740.522764 1023.60558,703.350514 1058.73801,663.812713 C1082.2664,637.294899 1104.16583,609.319807 1114.56612,578.414656 C1134.46067,519.325122 1107.08639,452.662393 1046.37139,412.308187 C996.066333,378.876053 928.555959,364.365282 862.472132,355.559601 C802.21016,347.529067 732.531049,347.032972 677.059575,326.103976 C624.161669,306.12066 576.025346,281.486456 520.553873,264.510714 Z" id="Path-Copy" transform="translate(598.482293, 535.915338) rotate(-34.000000) translate(-598.482293, -535.915338) "></path>
            </g>
            <path d="M0,0 L768,0 C785.673112,-3.24649801e-15 800,14.326888 800,32 L800,992 C800,1009.67311 785.673112,1024 768,1024 L0,1024 L0,1024 L0,0 Z" id="矩形" fill="#FFFFFF"></path>
            <g id="邀请码" transform="translate(160.000000, 654.000000)" fill="#444444" fill-rule="nonzero">
                <g id="invitation" transform="translate(444.000000, 35.000000)">
                    <path d="M2.123,8.6 L2.128,8.594 L2.131,8.591 L2.13,8.591 L2.14079285,8.580222 L2.14079285,8.580222 L2.14705927,8.57384296 L2.168,8.554 L2.17533478,8.54765896 L2.171,8.552 L2.18141769,8.54251113 L9.67323846,2.12088437 C9.71650653,2.08473209 9.75719973,2.05997147 9.80007547,2.0414029 C9.8103883,2.03689916 9.82093909,2.03273855 9.83158469,2.02895194 C9.87615842,2.01318906 9.9225886,2.00380077 9.96943662,2.00093952 L10.0305061,2.00090917 C10.0774023,2.00380077 10.1238325,2.01318906 10.168365,2.02899056 C10.1790518,2.03273855 10.1896026,2.03689916 10.200039,2.04143527 C10.2427912,2.05997147 10.2834844,2.08473209 10.3205821,2.11557607 L10.3267524,2.12088437 L17.8185769,8.54251113 C17.8318729,8.5535585 17.8445896,8.56527913 17.8566745,8.57762072 C17.8610319,8.58212238 17.8628478,8.58403349 17.8646457,8.58595512 C17.8715905,8.59338547 17.8780368,8.60070125 17.8842688,8.60820138 C17.8939354,8.61973144 17.9028763,8.63152111 17.9112309,8.64360922 C17.9138116,8.64741522 17.9165348,8.65147184 17.9191922,8.65555822 L17.9119456,8.64464608 C17.9194515,8.65566648 17.9267979,8.66732106 17.9336657,8.67928536 C17.9420491,8.69383153 17.9496114,8.70874194 17.9563903,8.72393563 C17.9614128,8.73510792 17.9660987,8.74670322 17.970355,8.75850379 C17.9778159,8.77941237 17.9839327,8.80080194 17.9886131,8.8224632 C17.9894513,8.82593065 17.9902199,8.82969096 17.9909462,8.83346632 L17.9886131,8.8224632 C17.9929615,8.84258853 17.9960701,8.86294839 17.9979292,8.8834185 L18,8.92887545 L18,16.4267837 C18,17.247375 17.3717246,17.9212306 16.5699653,17.9935708 L16.42677,18 L3.57322086,18 C2.7526253,18 2.07876941,17.3717328 2.00642924,16.5699781 L2,16.4267837 L2.0003429,8.91025596 C2.00147399,8.87997634 2.00532877,8.84981847 2.01187664,8.82018039 C2.01395006,8.81060234 2.01631462,8.80119909 2.01895549,8.79185626 C2.02213464,8.78075246 2.02572601,8.76954124 2.02971617,8.75844947 L2.04322813,8.72475298 L2.05411603,8.7018336 L2.05411603,8.7018336 L2.06628251,8.67926806 C2.07062601,8.67176813 2.07513737,8.66438302 2.07982356,8.65712388 L2.10803188,8.61766613 L2.10803188,8.61766613 L2.116,8.608 L2.088,8.644 L2.129,8.594 L2.123,8.6 Z M9.999,13.282 L4.45,16.995 L15.549,16.995 L9.999,13.282 Z M3.004,10.111 L3.00418353,16.4267837 C3.00418353,16.5282831 3.03075863,16.6235761 3.07733048,16.7060841 L7.069,14.034 L4.86018341,11.9027981 C4.83689957,11.8835469 4.81538151,11.8622357 4.79590843,11.8391436 L3.004,10.111 Z M15.1398075,11.9027981 L12.93,14.034 L16.9226604,16.7060841 C16.9548125,16.6491225 16.9774338,16.5860674 16.9883596,16.5190833 L16.9958074,16.4267837 L16.995,10.111 L15.2040825,11.8391436 C15.1846094,11.8622357 15.1630913,11.8835469 15.1398075,11.9027981 Z M14.3179846,9.43096721 L5.68200627,9.43096721 L5.682,11.3 L7.923,13.462 L9.72074477,12.2605562 L9.784,12.225 L9.82508167,12.2070662 C9.84102869,12.2012396 9.85719771,12.1961608 9.87357149,12.191907 L9.90958135,12.1838134 C9.92568721,12.1809873 9.94211084,12.1787998 9.95861949,12.177424 L10.0004872,12.1756839 C10.0141665,12.1756843 10.0278506,12.1762423 10.0415204,12.177364 C10.0578801,12.1787998 10.0743037,12.1809873 10.0905785,12.1839739 L10.1263942,12.1917646 C10.1427932,12.1961608 10.1589622,12.2012396 10.1748584,12.20713 L10.215,12.225 L10.2792461,12.2605562 L12.076,13.462 L14.317,11.3 L14.3179846,9.43096721 Z M10.221,12.227 L10.2280764,12.2304862 L10.239,12.236 L10.221,12.227 Z M9.778,12.227 L9.76,12.236 L9.77190811,12.2304783 L9.778,12.227 Z M10.2076524,12.2206142 L10.221,12.227 L10.215,12.225 L10.2076524,12.2206142 Z M9.79233847,12.2206142 L9.784,12.225 L9.778,12.227 L9.79233847,12.2206142 Z M9.999,3.163 L3.247,8.95 L4.677,10.33 L4.67782275,8.92887545 C4.67782275,8.68238867 4.85543787,8.47738613 5.08966288,8.43487306 L5.17991451,8.42678369 L14.8200764,8.42678369 C15.0665632,8.42678369 15.2715657,8.60439881 15.3140788,8.83862382 L15.3221682,8.92887545 L15.322,10.33 L16.752,8.95 L9.999,3.163 Z M2.13,8.591 L2.128,8.594 L2.122,8.6 L2.12765069,8.59429357 L2.13,8.591 Z M2.168,8.554 L2.15496206,8.566102 L2.16269122,8.55884897 L2.16269122,8.55884897 L2.168,8.554 Z"></path>
                </g>
            </g>
        </g>
    </g>
</svg>