<?xml version="1.0" encoding="UTF-8"?>
<svg width="20px" height="20px" viewBox="0 0 20 20" version="1.1" xmlns="http://www.w3.org/2000/svg" xmlns:xlink="http://www.w3.org/1999/xlink">
    <title>mobile</title>
    <g id="1.0默认密码登录页面" stroke="none" stroke-width="1" fill="none" fill-rule="evenodd">
        <g transform="translate(-604.000000, -355.000000)">
            <rect fill="#648CFA" x="0" y="0" width="1440" height="810"></rect>
            <g id="编组" transform="translate(531.000000, -131.000000)" fill="#1B51E5" fill-rule="nonzero" opacity="0.2">
                <g id="编组-6" transform="translate(0.982293, 0.000000)">
                    <path d="M520.57158,264.510714 C478.093251,251.519233 433.205214,240.667161 387.38221,242.031422 C320.00678,244.031304 255.330222,274.517875 223.657023,319.282673 C196.783962,357.210666 193.468204,401.665405 181.891967,443.755942 C167.645775,495.605593 140.310049,544.897256 111.123668,593.088208 C95.4509289,618.978152 78.9106945,645.426202 76.3371266,673.804371 C72.770759,713.205145 97.8028037,752.466392 137.061763,778.674147 C176.320723,804.881901 228.457161,818.710542 280.786376,821.725868 C308.632959,823.330424 337.73259,821.84214 362.465831,812.090778 C388.635258,801.773558 407.710505,783.131248 433.985959,772.961306 C458.333647,763.535506 486.816393,762.217754 514.152118,763.442488 C549.843227,765.041147 585.075963,770.677661 618.810548,780.185685 C657.018875,790.975746 692.547607,806.610481 730.62099,817.555571 C768.694373,828.500661 811.336563,834.608828 850.296718,825.477584 C886.924277,816.896695 915.840771,796.060717 941.913809,774.961188 C984.546937,740.522764 1023.62329,703.350514 1058.75572,663.812713 C1082.28411,637.294899 1104.18353,609.319807 1114.58383,578.414656 C1134.47838,519.325122 1107.1041,452.662393 1046.3891,412.308187 C996.084041,378.876053 928.573667,364.365282 862.48984,355.559601 C802.227867,347.529067 732.548756,347.032972 677.077282,326.103976 C624.179377,306.12066 576.043054,281.486456 520.57158,264.510714 Z" id="Path-Copy" transform="translate(598.500000, 535.915338) rotate(-34.000000) translate(-598.500000, -535.915338) "></path>
                </g>
            </g>
            <path d="M0,0 L768,0 C785.673112,-3.24649801e-15 800,14.326888 800,32 L800,992 C800,1009.67311 785.673112,1024 768,1024 L0,1024 L0,1024 L0,0 Z" id="矩形" fill="#FFFFFF"></path>
            <g id="手机号" transform="translate(160.000000, 320.000000)" fill="#444444" fill-rule="nonzero">
                <g id="mobile" transform="translate(444.000000, 35.000000)">
                    <path d="M13.7358491,2 C14.9863051,2 16,2.89917707 16,4.00836819 L16,15.9916318 C16,17.1008229 14.9863051,18 13.7358491,18 L6.26415094,18 C5.0136949,18 4,17.1008229 4,15.9916318 L4,4.00836819 C4,2.89917707 5.0136949,2 6.26415094,2 L13.7358491,2 Z M13.7358491,3.0041841 L12.981,3.004 L12.9811321,4.10878661 C12.9811321,4.64366322 12.5248943,5.08401795 11.9387846,5.14035468 L11.8113208,5.14644351 L8.18867924,5.14644351 C7.54261029,5.14644351 7.01886793,4.68186869 7.01886793,4.10878661 L7.01886793,4.10878661 L7.018,3.004 L6.26415094,3.0041841 C5.63892292,3.0041841 5.13207547,3.45377263 5.13207547,4.00836819 L5.13207547,15.9916318 C5.13207547,16.5462274 5.63892292,16.9958159 6.26415094,16.9958159 L13.7358491,16.9958159 C14.3610771,16.9958159 14.8679245,16.5462274 14.8679245,15.9916318 L14.8679245,4.00836819 C14.8679245,3.45377263 14.3610771,3.0041841 13.7358491,3.0041841 Z M11.849,3.004 L8.15,3.004 L8.15094339,4.10878661 C8.15094339,4.12111096 8.15845225,4.13187964 8.16963324,4.1376894 L8.18867924,4.14225941 L11.8113208,4.14225941 C11.8321617,4.14225941 11.8490566,4.12727313 11.8490566,4.10878661 L11.8490566,4.10878661 L11.849,3.004 Z"></path>
                </g>
            </g>
        </g>
    </g>
</svg>