<?xml version="1.0" encoding="UTF-8"?>
<svg width="20px" height="20px" viewBox="0 0 20 20" version="1.1" xmlns="http://www.w3.org/2000/svg" xmlns:xlink="http://www.w3.org/1999/xlink">
    <title>password</title>
    <g id="1.0默认密码登录页面" stroke="none" stroke-width="1" fill="none" fill-rule="evenodd">
        <g transform="translate(-604.000000, -460.000000)">
            <rect fill="#648CFA" x="0" y="0" width="1440" height="810"></rect>
            <g id="编组" transform="translate(531.000000, -131.000000)" fill="#1B51E5" fill-rule="nonzero" opacity="0.2">
                <g id="编组-6" transform="translate(0.982293, 0.000000)">
                    <path d="M520.57158,264.510714 C478.093251,251.519233 433.205214,240.667161 387.38221,242.031422 C320.00678,244.031304 255.330222,274.517875 223.657023,319.282673 C196.783962,357.210666 193.468204,401.665405 181.891967,443.755942 C167.645775,495.605593 140.310049,544.897256 111.123668,593.088208 C95.4509289,618.978152 78.9106945,645.426202 76.3371266,673.804371 C72.770759,713.205145 97.8028037,752.466392 137.061763,778.674147 C176.320723,804.881901 228.457161,818.710542 280.786376,821.725868 C308.632959,823.330424 337.73259,821.84214 362.465831,812.090778 C388.635258,801.773558 407.710505,783.131248 433.985959,772.961306 C458.333647,763.535506 486.816393,762.217754 514.152118,763.442488 C549.843227,765.041147 585.075963,770.677661 618.810548,780.185685 C657.018875,790.975746 692.547607,806.610481 730.62099,817.555571 C768.694373,828.500661 811.336563,834.608828 850.296718,825.477584 C886.924277,816.896695 915.840771,796.060717 941.913809,774.961188 C984.546937,740.522764 1023.62329,703.350514 1058.75572,663.812713 C1082.28411,637.294899 1104.18353,609.319807 1114.58383,578.414656 C1134.47838,519.325122 1107.1041,452.662393 1046.3891,412.308187 C996.084041,378.876053 928.573667,364.365282 862.48984,355.559601 C802.227867,347.529067 732.548756,347.032972 677.077282,326.103976 C624.179377,306.12066 576.043054,281.486456 520.57158,264.510714 Z" id="Path-Copy" transform="translate(598.500000, 535.915338) rotate(-34.000000) translate(-598.500000, -535.915338) "></path>
                </g>
            </g>
            <path d="M0,0 L768,0 C785.673112,-3.24649801e-15 800,14.326888 800,32 L800,992 C800,1009.67311 785.673112,1024 768,1024 L0,1024 L0,1024 L0,0 Z" id="矩形" fill="#FFFFFF"></path>
            <g id="密码" transform="translate(160.000000, 425.000000)" fill="#444444" fill-rule="nonzero">
                <g id="password" transform="translate(444.000000, 35.000000)">
                    <path d="M10,2 C12.0730688,2 13.7536232,3.66347758 13.7536232,5.71548117 L13.7536232,5.71548117 L13.753,6.284 L14.9710145,6.28451883 C16.0915922,6.28451883 17,7.1836959 17,8.29288702 L17,15.9916318 C17,17.1008229 16.0915922,18 14.9710145,18 L5.0289855,18 C3.90840775,18 3,17.1008229 3,15.9916318 L3,8.29288702 C3,7.1836959 3.90840775,6.28451883 5.0289855,6.28451883 L6.246,6.284 L6.24637681,5.71548117 C6.24637681,3.72967125 7.82025705,2.10772543 9.800649,2.00515016 Z M14.9710145,7.28870293 L5.0289855,7.28870293 C4.46869663,7.28870293 4.01449275,7.73829146 4.01449275,8.29288702 L4.01449275,15.9916318 C4.01449275,16.5462274 4.46869663,16.9958159 5.0289855,16.9958159 L14.9710145,16.9958159 C15.5313034,16.9958159 15.9855072,16.5462274 15.9855072,15.9916318 L15.9855072,8.29288702 C15.9855072,7.73829146 15.5313034,7.28870293 14.9710145,7.28870293 Z M10,10.5690377 C10.2801444,10.5690377 10.5072464,10.7938319 10.5072464,11.0711297 L10.5072464,11.0711297 L10.5072464,13.2133891 C10.5072464,13.4906869 10.2801444,13.7154812 10,13.7154812 C9.71985556,13.7154812 9.49275362,13.4906869 9.49275362,13.2133891 L9.49275362,13.2133891 L9.49275362,11.0711297 C9.49275362,10.7938319 9.71985556,10.5690377 10,10.5690377 Z M10,3.0041841 C8.48722003,3.0041841 7.26086956,4.21807314 7.26086956,5.71548117 L7.26086956,5.71548117 L7.26,6.284 L12.739,6.284 L12.7391304,5.71548117 C12.7391304,4.2735327 11.6019385,3.09449072 10.1668602,3.00913226 Z"></path>
                </g>
            </g>
        </g>
    </g>
</svg>