<?xml version="1.0" encoding="UTF-8"?>
<svg width="890px" height="814px" viewBox="0 0 890 814" version="1.1" xmlns="http://www.w3.org/2000/svg" xmlns:xlink="http://www.w3.org/1999/xlink">
    <!-- Generator: Sketch 58 (84663) - https://sketch.com -->
    <title>Path 1</title>
    <desc>Created with Sketch.</desc>
    <g id="登录" stroke="none" stroke-width="1" fill="none" fill-rule="evenodd" opacity="0.2">
        <g id="底纹" transform="translate(-210.000000, -182.000000)" fill="#1B51E5" fill-rule="nonzero">
            <g id="编组" transform="translate(44.074845, 0.000000)">
                <path d="M520.57158,264.510714 C478.093251,251.519233 433.205214,240.667161 387.38221,242.031422 C320.00678,244.031304 255.330222,274.517875 223.657023,319.282673 C196.783962,357.210666 193.468204,401.665405 181.891967,443.755942 C167.645775,495.605593 140.310049,544.897256 111.123668,593.088208 C95.4509289,618.978152 78.9106945,645.426202 76.3371266,673.804371 C72.770759,713.205145 97.8028037,752.466392 137.061763,778.674147 C176.320723,804.881901 228.457161,818.710542 280.786376,821.725868 C308.632959,823.330424 337.73259,821.84214 362.465831,812.090778 C388.635258,801.773558 407.710505,783.131248 433.985959,772.961306 C458.333647,763.535506 486.816393,762.217754 514.152118,763.442488 C549.843227,765.041147 585.075963,770.677661 618.810548,780.185685 C657.018875,790.975746 692.547607,806.610481 730.62099,817.555571 C768.694373,828.500661 811.336563,834.608828 850.296718,825.477584 C886.924277,816.896695 915.840771,796.060717 941.913809,774.961188 C984.546937,740.522764 1023.62329,703.350514 1058.75572,663.812713 C1082.28411,637.294899 1104.18353,609.319807 1114.58383,578.414656 C1134.47838,519.325122 1107.1041,452.662393 1046.3891,412.308187 C996.084041,378.876053 928.573667,364.365282 862.48984,355.559601 C802.227867,347.529067 732.548756,347.032972 677.077282,326.103976 C624.179377,306.12066 576.043054,281.486456 520.57158,264.510714 Z" id="Path-Copy" transform="translate(598.500000, 535.915338) rotate(-34.000000) translate(-598.500000, -535.915338) "></path>
            </g>
        </g>
    </g>
</svg>