<?xml version="1.0" encoding="UTF-8"?>
<svg width="569px" height="666px" viewBox="0 0 569 666" version="1.1" xmlns="http://www.w3.org/2000/svg" xmlns:xlink="http://www.w3.org/1999/xlink">
    <!-- Generator: Sketch 58 (84663) - https://sketch.com -->
    <title>Path 2</title>
    <desc>Created with Sketch.</desc>
    <g id="登录" stroke="none" stroke-width="1" fill="none" fill-rule="evenodd" opacity="0.2">
        <g id="底纹" transform="translate(-331.000000, -327.000000)" fill="#1B51E5" fill-rule="nonzero">
            <g id="编组-2" transform="translate(246.092553, 226.000000)">
                <path d="M320.610897,191.123227 C293.416636,180.783068 264.679701,172.145705 235.344209,173.231545 C192.211039,174.823288 150.805664,199.08811 130.528754,234.717235 C113.324852,264.904821 111.202132,300.287164 103.791125,333.787796 C94.6708357,375.055885 77.1707397,414.288025 58.48587,452.644089 C48.4523171,473.250371 37.8634016,494.30086 36.2158255,516.887566 C33.9326677,548.247365 49.9579672,579.496113 75.0912149,600.355346 C100.224463,621.214579 133.601761,632.221049 167.102474,634.621002 C184.929617,635.898098 203.55895,634.713545 219.392958,626.952257 C236.1464,618.740592 248.358209,603.902835 265.179528,595.808391 C280.766708,588.306224 299.001117,587.257401 316.501213,588.232189 C339.350353,589.504592 361.906047,593.990796 383.502638,601.558408 C407.96328,610.146415 430.708468,622.590388 455.08272,631.301786 C479.456972,640.013184 506.756134,644.874786 531.69809,637.607062 C555.146738,630.777375 573.658828,614.193637 590.350563,597.400134 C617.643924,569.98996 642.660267,540.403884 665.151749,508.935022 C680.214419,487.829007 694.234242,465.563117 700.892424,440.965139 C713.628742,393.934694 696.103964,340.876603 657.234745,308.75795 C625.029879,282.1487 581.810319,270.599311 539.504022,263.590708 C500.924826,257.199058 456.316859,256.804208 420.804499,240.146435 C386.939716,224.241347 356.123256,204.634531 320.610897,191.123227 Z" id="Path" transform="translate(370.500000, 407.139152) rotate(-60.000000) translate(-370.500000, -407.139152) "></path>
            </g>
        </g>
    </g>
</svg>