<?xml version="1.0" encoding="UTF-8"?>
<svg width="16px" height="16px" viewBox="0 0 16 16" version="1.1" xmlns="http://www.w3.org/2000/svg" xmlns:xlink="http://www.w3.org/1999/xlink">
    <!-- Generator: Sketch 58 (84663) - https://sketch.com -->
    <title>搜索</title>
    <desc>Created with Sketch.</desc>
    <defs>
        <rect id="path-1" x="0" y="0" width="480" height="336" rx="16"></rect>
        <filter x="-1.6%" y="-1.6%" width="103.1%" height="104.5%" filterUnits="objectBoundingBox" id="filter-2">
            <feMorphology radius="0.5" operator="dilate" in="SourceAlpha" result="shadowSpreadOuter1"></feMorphology>
            <feOffset dx="0" dy="2" in="shadowSpreadOuter1" result="shadowOffsetOuter1"></feOffset>
            <feGaussianBlur stdDeviation="2" in="shadowOffsetOuter1" result="shadowBlurOuter1"></feGaussianBlur>
            <feComposite in="shadowBlurOuter1" in2="SourceAlpha" operator="out" result="shadowBlurOuter1"></feComposite>
            <feColorMatrix values="0 0 0 0 0   0 0 0 0 0   0 0 0 0 0  0 0 0 0.2 0" type="matrix" in="shadowBlurOuter1"></feColorMatrix>
        </filter>
    </defs>
    <g id="登录" stroke="none" stroke-width="1" fill="none" fill-rule="evenodd">
        <g id="区号下拉菜单" transform="translate(-196.000000, -161.000000)">
            <rect fill="#FFFFFF" x="0" y="0" width="1440" height="1024"></rect>
            <g id="区号联想" transform="translate(160.000000, 40.000000)">
                <g id="编组" transform="translate(0.000000, 89.000000)">
                    <g id="矩形">
                        <use fill="black" fill-opacity="1" filter="url(#filter-2)" xlink:href="#path-1"></use>
                        <use stroke="#D8D8D8" stroke-width="1" fill="#FFFFFF" fill-rule="evenodd" xlink:href="#path-1"></use>
                    </g>
                    <rect id="矩形备份" stroke="#D8D8D8" fill="#FFFFFF" x="20" y="20" width="440" height="40" rx="16"></rect>
                    <path d="M47.0243201,43.0243201 C47.2226277,42.8260125 47.5441478,42.8260125 47.7424554,43.0243201 L47.7424554,43.0243201 L51.8512693,47.133134 C52.0495769,47.3314416 52.0495769,47.6529617 51.8512693,47.8512693 C51.6529617,48.0495769 51.3314416,48.0495769 51.133134,47.8512693 L51.133134,47.8512693 L47.0243201,43.7424554 C46.8260125,43.5441478 46.8260125,43.2226277 47.0243201,43.0243201 Z M41.7308669,32 C44.8959373,32 47.4617338,34.5657965 47.4617338,37.7308669 C47.4617338,40.8959373 44.8959373,43.4617338 41.7308669,43.4617338 C38.5657965,43.4617338 36,40.8959373 36,37.7308669 C36,34.5657965 38.5657965,32 41.7308669,32 Z M41.7308669,33.0155967 C39.126695,33.0155967 37.0155967,35.126695 37.0155967,37.7308669 C37.0155967,40.3350387 39.126695,42.4461371 41.7308669,42.4461371 C44.3350387,42.4461371 46.4461371,40.3350387 46.4461371,37.7308669 C46.4461371,35.126695 44.3350387,33.0155967 41.7308669,33.0155967 Z" id="搜索" fill="#444444" fill-rule="nonzero"></path>
                </g>
                <g id="搜索" transform="translate(20.000000, 108.000000)">
                    <g id="搜索-" transform="translate(16.000000, 12.000000)"></g>
                </g>
            </g>
        </g>
    </g>
</svg>